<svg width="315" height="315" viewBox="0 0 315 315" fill="none" xmlns="http://www.w3.org/2000/svg">
<rect width="315" height="315" fill="#1E1E1E"/>
<rect width="315" height="315" rx="74" fill="black"/>
<path d="M44 61.5525C44 56.5095 49.8441 53.7164 53.7686 56.8835L98.7686 93.1989C100.18 94.338 101 96.0543 101 97.8679V179.13C101 180.945 101.822 182.663 103.235 183.801L150.265 221.699C151.678 222.838 152.5 224.556 152.5 226.371V267.622C152.5 272.543 146.901 275.371 142.939 272.451L46.4395 201.299C44.9056 200.168 44 198.375 44 196.469V61.5525ZM261.731 56.8835C265.656 53.7164 271.5 56.5095 271.5 61.5525V196.469C271.5 198.375 270.594 200.168 269.061 201.299L172.561 272.451C168.599 275.371 163 272.543 163 267.622V226.371C163 224.556 163.822 222.838 165.235 221.699L212.265 183.801C213.678 182.663 214.5 180.945 214.5 179.13V97.8679C214.5 96.0543 215.32 94.338 216.731 93.1989L261.731 56.8835ZM158 119C170.15 119 180 128.85 180 141C180 149.961 174.641 157.67 166.954 161.099C166.984 161.396 167 161.696 167 162V190C167 194.97 162.971 199 158 199C153.029 199 149 194.97 149 190V162C149 161.696 149.015 161.395 149.045 161.099C141.358 157.669 136 149.961 136 141C136 128.85 145.85 119 158 119Z" fill="white"/>
</svg>
